<svg xmlns="http://www.w3.org/2000/svg" viewBox="0 0 45.68 15.98"><defs><style>.cls-2{fill:#fff}</style></defs><g id="Layer_2" data-name="Layer 2"><g id="Layer_1-2" data-name="Layer 1"><rect width="45.68" height="15.98" rx="2.11" style="fill:#333"/><path class="cls-2" d="M20.9 8.77a.71.71 0 0 0-.48.17.87.87 0 0 0-.28.46 1 1 0 0 0 0 .22v.53a.87.87 0 0 0 .21.59.79.79 0 0 0 1.19-.07 1.35 1.35 0 0 0 .22-.82 1.34 1.34 0 0 0-.21-.77.72.72 0 0 0-.65-.31Zm13 0a.71.71 0 0 0-.65.38 1.44 1.44 0 0 0-.19.77 1.41 1.41 0 0 0 .19.76.72.72 0 0 0 .64.38.71.71 0 0 0 .64-.39 1.58 1.58 0 0 0 0-1.52.71.71 0 0 0-.64-.43Zm-9.47 0a.72.72 0 0 0-.48.17.87.87 0 0 0-.28.46 1 1 0 0 0 0 .22v.53a.87.87 0 0 0 .21.59.79.79 0 0 0 1.12-.07 1.35 1.35 0 0 0 .22-.82 1.34 1.34 0 0 0-.22-.77.72.72 0 0 0-.58-.31Zm-7.37-1.15c-.05.19-.11.47-.21.84l-.37 1.16h1.19l-.37-1.16c-.05-.12-.13-.4-.24-.84Zm22.23 1.07a.7.7 0 0 0-.57.29 1 1 0 0 0-.21.55H40a1 1 0 0 0-.14-.53.65.65 0 0 0-.57-.31ZM20.2 5.52a.28.28 0 0 0 0-.09v-.22c-.29 0-.57 0-.57.3a.21.21 0 0 0 .23.24.34.34 0 0 0 .34-.23Zm-3.88-1c-.05-.14-.08-.3-.12-.43 0 .13-.07.29-.1.43l-.18.56h.59ZM40 4.32a.73.73 0 0 1 .71.81v.17h-1.17a.45.45 0 0 0 .51.43 1.48 1.48 0 0 0 .46-.07l.06.28a1.53 1.53 0 0 1-.58.11.79.79 0 0 1-.85-.84.82.82 0 0 1 .86-.89Zm-6.62 0v.25a.62.62 0 0 1 .53-.29c.29 0 .59.19.59.71V6h-.42v-.92c0-.24-.09-.42-.31-.42a.35.35 0 0 0-.33.25.44.44 0 0 0 0 .13V6H33V4.36Zm-4.38 0a.73.73 0 0 1 .72.81.59.59 0 0 1 0 .17h-1.1a.45.45 0 0 0 .51.43 1.42 1.42 0 0 0 .45-.07l.06.28a1.44 1.44 0 0 1-.57.11.78.78 0 0 1-.85-.84.82.82 0 0 1 .78-.89Zm-1.7-.71h.41V6h-.41Zm-3.31 1a.87.87 0 0 0-.44.12l-.09-.27a1.28 1.28 0 0 1 .6-.15.62.62 0 0 1 .68.7v.6a2.13 2.13 0 0 0 0 .39h-.38v-.18a.6.6 0 0 1-.49.22.48.48 0 0 1-.51-.49c0-.42.36-.63 1-.63-.09-.12-.13-.3-.42-.3Zm-2.47-1a.23.23 0 0 1 .24.23.22.22 0 0 1-.24.22.22.22 0 0 1-.23-.22.23.23 0 0 1 .18-.17Zm.21.69V6h-.42V4.36ZM16 3.73h.53L17.22 6h-.45l-.21-.64h-.72l-.19.64h-.44Zm2.25 7.74-.41-1.3h-1.5l-.34 1.3h-.74L16.64 7h.88L19 11.47ZM18.36 6H18l-.61-1.65h.45l.27.84a3.59 3.59 0 0 1 .11.41c0-.13.07-.26.11-.41l.27-.84h.4Zm.86-.45c0-.42.37-.63 1-.63 0-.11 0-.29-.33-.29a.91.91 0 0 0-.45.12l-.08-.27a1.25 1.25 0 0 1 .6-.15.62.62 0 0 1 .68.7v.6a2.13 2.13 0 0 0 0 .39h-.38v-.18a.6.6 0 0 1-.49.22.49.49 0 0 1-.55-.5ZM22 11.12a1.29 1.29 0 0 1-1 .42 1 1 0 0 1-.91-.45v1.68h-.69v-4.5h.6v.5a1.27 1.27 0 0 1 2-.12 1.78 1.78 0 0 1 .38 1.18 1.79 1.79 0 0 1-.38 1.29ZM22.75 6h-.41V3.61h.41Zm2.78 5.11a1.29 1.29 0 0 1-1 .42 1 1 0 0 1-.91-.45v1.68h-.71V8.27h.63v.5a1.27 1.27 0 0 1 2-.12A1.78 1.78 0 0 1 26 9.83a1.79 1.79 0 0 1-.47 1.29ZM26 6.05a.57.57 0 0 1-.52-.28v.24h-.35v-2.4h.42v1a.6.6 0 0 1 .53-.27c.41 0 .69.34.69.84a.8.8 0 0 1-.77.87Zm3.59 5.1a1.79 1.79 0 0 1-1.22.39 2.17 2.17 0 0 1-1.15-.28l.17-.59a2 2 0 0 0 1 .27 1 1 0 0 0 .62-.18.59.59 0 0 0 .23-.49.65.65 0 0 0-.19-.45 1.61 1.61 0 0 0-.61-.34c-.78-.29-1.17-.72-1.17-1.27a1.13 1.13 0 0 1 .41-.9A1.67 1.67 0 0 1 28.83 7a2.12 2.12 0 0 1 1 .21l-.18.58a1.81 1.81 0 0 0-.85-.2.89.89 0 0 0-.59.18.53.53 0 0 0-.18.4.55.55 0 0 0 .21.44 2.13 2.13 0 0 0 .64.34 2.19 2.19 0 0 1 .85.54 1.15 1.15 0 0 1 .27.77 1.21 1.21 0 0 1-.39.89Zm2.53-2.35h-.79v1.56c0 .39.14.59.42.59a1.35 1.35 0 0 0 .31 0v.54a1.64 1.64 0 0 1-.55.08.87.87 0 0 1-.66-.26 1.25 1.25 0 0 1-.24-.86V8.8h-.47v-.53h.47v-.59l.7-.21v.8h.79Zm-.41-2.75a.8.8 0 0 1-.82-.85.82.82 0 0 1 .85-.88.8.8 0 0 1 .82.85.82.82 0 0 1-.85.88Zm3.33 5a1.54 1.54 0 0 1-1.18.48 1.4 1.4 0 0 1-1.12-.47 1.69 1.69 0 0 1-.42-1.18 1.75 1.75 0 0 1 .43-1.22 1.52 1.52 0 0 1 1.16-.47 1.48 1.48 0 0 1 1.14.47 1.69 1.69 0 0 1 .41 1.17 1.77 1.77 0 0 1-.46 1.23Zm.73-6.7H36v-.3l.41-.11v.42h.39v.31h-.39v.73c0 .21 0 .31.21.31h.16V6a1 1 0 0 1-.3 0 .46.46 0 0 1-.36-.14.63.63 0 0 1-.12-.41v-.78h-.24Zm1.83 4.54h-.22a.67.67 0 0 0-.58.29 1 1 0 0 0-.18.63v1.68h-.71V8.27h.62v.61a1.19 1.19 0 0 1 .36-.51.89.89 0 0 1 .51-.17h.18ZM37.71 5v1h-.42V3.61h.42v1a.52.52 0 0 1 .2-.19.6.6 0 0 1 .29-.08c.28 0 .58.19.58.72V6h-.42v-.92c0-.23-.09-.42-.32-.42a.34.34 0 0 0-.32.24.23.23 0 0 0-.01.1Zm2.94 5h-2.14a.9.9 0 0 0 .31.72 1.05 1.05 0 0 0 .7.23 2.35 2.35 0 0 0 .86-.15l.12.49a2.77 2.77 0 0 1-1.08.2 1.55 1.55 0 0 1-1.17-.44 1.63 1.63 0 0 1-.43-1.18 1.85 1.85 0 0 1 .4-1.2 1.35 1.35 0 0 1 1.12-.52 1.18 1.18 0 0 1 1 .52 1.72 1.72 0 0 1 .28 1 2.88 2.88 0 0 1 .03.33ZM25.93 4.65a.38.38 0 0 0-.37.3.41.41 0 0 0 0 .11v.27a.31.31 0 0 0 0 .1.38.38 0 0 0 .37.29c.26 0 .42-.21.42-.54s-.14-.53-.42-.53Zm3 0a.39.39 0 0 0-.38.4h.72a.35.35 0 0 0-.34-.44Zm2.8 0c-.29 0-.41.28-.41.56s.16.56.41.56.4-.23.4-.57-.13-.57-.4-.57Zm-8 .88a.22.22 0 0 0 .24.24.33.33 0 0 0 .32-.23.28.28 0 0 0 0-.09v-.24c-.29-.01-.58.05-.58.3Zm16.21-.9a.41.41 0 0 0-.38.4h.73a.36.36 0 0 0-.37-.42ZM8 12.91H5.2a2 2 0 0 1-2.05-1.6 2.22 2.22 0 0 1 0-.45V5.12a2 2 0 0 1 1.61-2 2.32 2.32 0 0 1 .46 0h5.7a2 2 0 0 1 2 1.61 1.93 1.93 0 0 1 0 .42v5.78a2 2 0 0 1-1.62 2 1.71 1.71 0 0 1-.45 0Zm0-7.46v-.08a.47.47 0 0 0-.68-.21.49.49 0 0 0-.14.71c.08.15.17.3.26.45a.15.15 0 0 1 0 .19l-1.2 2.06a.19.19 0 0 1-.19.1h-.83a.45.45 0 0 0-.45.39.47.47 0 0 0 .51.56h3.59c-.16-.27-.31-.53-.45-.79a.25.25 0 0 0-.26-.16h-.88L8.23 7l.7-1.23a.47.47 0 0 0 0-.52.46.46 0 0 0-.47-.19.57.57 0 0 0-.46.39Zm.81 1.35c-.18.3-.33.58-.5.86a.18.18 0 0 0 0 .21l.47.81 1.12 1.94a.48.48 0 1 0 .85-.45l-.31-.55h.37a.48.48 0 1 0 0-.95H10a.23.23 0 0 1-.24-.14C9.48 8 9.15 7.4 8.81 6.8ZM6.51 10h-.9c-.23 0-.26 0-.34.24a.48.48 0 0 0 .21.56.44.44 0 0 0 .59-.09c.16-.2.29-.44.44-.71Z"/></g></g></svg>