<svg xmlns="http://www.w3.org/2000/svg" viewBox="0 0 45.68 15.98"><defs><style>.cls-1{fill:#333;}.cls-2{fill:#fff;}</style></defs><title>Asset 21</title><g id="Layer_2" data-name="Layer 2"><g id="Layer_1-2" data-name="Layer 1"><rect class="cls-1" width="45.68" height="15.98" rx="2.11"/><path class="cls-2" d="M14.4,4.87h-.29A1.36,1.36,0,0,0,14,4.54h-.4a1.36,1.36,0,0,0-.09.33h-.26s.07-.21.2-.57a4,4,0,0,0,.21-.58H14s.07.22.19.57A5.91,5.91,0,0,1,14.4,4.87ZM14,4.37c-.1-.3-.15-.47-.15-.49h0s-.05.18-.15.49Z"/><path class="cls-2" d="M15.53,4.87h-.22a1.85,1.85,0,0,0-.24-.39A2.29,2.29,0,0,1,14.78,4h0c0,.13,0,.24,0,.35s0,.32,0,.53h-.21c0-.19,0-.39,0-.6s0-.4,0-.55h.26a1.61,1.61,0,0,0,.22.37,2.17,2.17,0,0,1,.26.47h0c0-.13,0-.25,0-.35s0-.32,0-.49h.22c0,.15,0,.33,0,.55S15.52,4.69,15.53,4.87Z"/><path class="cls-2" d="M16.81,4.25a.68.68,0,0,1-.16.44.59.59,0,0,1-.45.19h-.36c0-.18,0-.38,0-.6s0-.4,0-.55h.36a.59.59,0,0,1,.46.16A.55.55,0,0,1,16.81,4.25Zm-.24,0a.43.43,0,0,0-.1-.28.38.38,0,0,0-.3-.12h-.11c0,.12,0,.24,0,.37s0,.28,0,.41l.12,0a.34.34,0,0,0,.28-.12A.48.48,0,0,0,16.57,4.29Z"/><path class="cls-2" d="M18,4.87h-.26a1.82,1.82,0,0,0-.15-.39.21.21,0,0,0-.18-.07h-.1c0,.15,0,.3,0,.46h-.24c0-.18,0-.38,0-.6s0-.4,0-.55h.41c.27,0,.41.1.41.28a.32.32,0,0,1-.23.31h0a.25.25,0,0,1,.15.14A1.81,1.81,0,0,1,18,4.87Zm-.33-.81c0-.12-.07-.18-.22-.18h-.15c0,.09,0,.21,0,.36h.08C17.56,4.25,17.65,4.19,17.65,4.06Z"/><path class="cls-2" d="M19.25,4.27a.64.64,0,0,1-.17.45.54.54,0,0,1-.8,0,.56.56,0,0,1-.15-.41.64.64,0,0,1,.16-.45.54.54,0,0,1,.41-.18.51.51,0,0,1,.39.17A.57.57,0,0,1,19.25,4.27ZM19,4.3a.45.45,0,0,0-.09-.3.28.28,0,0,0-.23-.12.26.26,0,0,0-.22.12.46.46,0,0,0-.09.29.49.49,0,0,0,.09.3.29.29,0,0,0,.24.11.25.25,0,0,0,.21-.11A.48.48,0,0,0,19,4.3Z"/><path class="cls-2" d="M19.74,4.87H19.5c0-.19,0-.39,0-.6s0-.4,0-.55h.24c0,.15,0,.33,0,.55S19.74,4.69,19.74,4.87Z"/><path class="cls-2" d="M21,4.25a.63.63,0,0,1-.16.44.59.59,0,0,1-.45.19h-.36c0-.18,0-.38,0-.6s0-.4,0-.55h.37a.62.62,0,0,1,.46.16A.59.59,0,0,1,21,4.25Zm-.24,0a.39.39,0,0,0-.1-.28.35.35,0,0,0-.3-.12h-.1c0,.12,0,.24,0,.37v.41l.12,0a.34.34,0,0,0,.28-.12A.48.48,0,0,0,20.78,4.29Z"/><path class="cls-2" d="M22.71,4.87h-.28a1.36,1.36,0,0,0-.08-.33H22a1.36,1.36,0,0,0-.09.33H21.6s.07-.21.2-.57A4,4,0,0,0,22,3.72h.33a4.44,4.44,0,0,0,.19.57A4.51,4.51,0,0,1,22.71,4.87Zm-.4-.5c-.1-.3-.15-.47-.15-.49h0s-.05.18-.15.49Z"/><path class="cls-2" d="M23.74,4a.34.34,0,0,1-.16.31.65.65,0,0,1-.38.1h-.06c0,.11,0,.26,0,.44H22.9c0-.17,0-.37,0-.6s0-.4,0-.55h.44a.55.55,0,0,1,.29.08A.27.27,0,0,1,23.74,4Zm-.23.05c0-.13-.08-.19-.25-.19h-.13c0,.11,0,.24,0,.38h.05C23.41,4.27,23.51,4.2,23.51,4.07Z"/><path class="cls-2" d="M24.8,4a.36.36,0,0,1-.16.31.65.65,0,0,1-.38.1H24.2c0,.11,0,.26,0,.44H24c0-.17,0-.37,0-.6s0-.4,0-.55h.44a.51.51,0,0,1,.28.08A.26.26,0,0,1,24.8,4Zm-.23.05c0-.13-.08-.19-.25-.19h-.13c0,.11,0,.24,0,.38h.05C24.46,4.27,24.57,4.2,24.57,4.07Z"/><path class="cls-2" d="M26.52,4.27a.64.64,0,0,1-.16.45A.54.54,0,0,1,26,4.9a.51.51,0,0,1-.39-.17.57.57,0,0,1-.16-.41.64.64,0,0,1,.17-.45.54.54,0,0,1,.8,0A.56.56,0,0,1,26.52,4.27Zm-.24,0a.45.45,0,0,0-.09-.3A.3.3,0,0,0,26,3.88a.26.26,0,0,0-.21.12.46.46,0,0,0-.09.29.49.49,0,0,0,.09.3A.27.27,0,0,0,26,4.7a.25.25,0,0,0,.22-.11A.48.48,0,0,0,26.28,4.3Z"/><path class="cls-2" d="M27.72,4.87H27.5a1.85,1.85,0,0,0-.24-.39A1.91,1.91,0,0,1,27,4h0a2.26,2.26,0,0,1,0,.35c0,.14,0,.32,0,.53h-.22c0-.19,0-.39,0-.6s0-.4,0-.55H27a2.22,2.22,0,0,0,.22.37,2.4,2.4,0,0,1,.27.47h0c0-.13,0-.25,0-.35s0-.32,0-.49h.22c0,.15,0,.33,0,.55S27.71,4.69,27.72,4.87Z"/><path class="cls-2" d="M17.33,8.54a1.83,1.83,0,0,1-.51,1.36,2,2,0,0,1-1.49.6,2,2,0,0,1-1.5-.61,2.06,2.06,0,0,1-.62-1.52,2.1,2.1,0,0,1,2.12-2.12,2,2,0,0,1,.83.17,1.61,1.61,0,0,1,.64.45l-.36.36a1.38,1.38,0,0,0-1.11-.48,1.58,1.58,0,0,0-1.12.45,1.56,1.56,0,0,0-.47,1.17A1.57,1.57,0,0,0,15.33,10a1.54,1.54,0,0,0,1.13-.45,1.29,1.29,0,0,0,.35-.83H15.33V8.23h2A1.71,1.71,0,0,1,17.33,8.54Z"/><path class="cls-2" d="M18,8A1.45,1.45,0,0,1,20,8,1.46,1.46,0,0,1,20.41,9a1.47,1.47,0,0,1-.4,1.06,1.47,1.47,0,0,1-2.06,0A1.47,1.47,0,0,1,17.55,9,1.46,1.46,0,0,1,18,8Zm.39,1.79a.89.89,0,0,0,1.28,0A1,1,0,0,0,19.89,9a1,1,0,0,0-.27-.73.87.87,0,0,0-1.28,0,1,1,0,0,0-.27.73A1,1,0,0,0,18.34,9.75Z"/><path class="cls-2" d="M21,8a1.35,1.35,0,0,1,1-.43,1.34,1.34,0,0,1,1,.43A1.46,1.46,0,0,1,23.46,9a1.48,1.48,0,0,1-.41,1.06,1.36,1.36,0,0,1-1,.42,1.38,1.38,0,0,1-1-.42A1.47,1.47,0,0,1,20.59,9,1.46,1.46,0,0,1,21,8Zm.39,1.79A.89.89,0,0,0,22,10a.87.87,0,0,0,.64-.27A1,1,0,0,0,22.93,9a1,1,0,0,0-.27-.73A.84.84,0,0,0,22,8a.86.86,0,0,0-.64.28,1,1,0,0,0-.27.73A1,1,0,0,0,21.38,9.75Z"/><path class="cls-2" d="M25,11.73a1.24,1.24,0,0,1-.81-.25,1.4,1.4,0,0,1-.45-.56l.48-.2a.77.77,0,0,0,.29.38.81.81,0,0,0,.49.15.89.89,0,0,0,.68-.26,1,1,0,0,0,.24-.7V10h0a1.11,1.11,0,0,1-.39.35,1.13,1.13,0,0,1-.56.13,1.23,1.23,0,0,1-.93-.42A1.53,1.53,0,0,1,23.63,9,1.52,1.52,0,0,1,24,8,1.2,1.2,0,0,1,25,7.53a1.13,1.13,0,0,1,.56.14,1,1,0,0,1,.39.34h0V7.62h.5v2.65A1.38,1.38,0,0,1,26,11.36,1.47,1.47,0,0,1,25,11.73Zm0-1.71a.83.83,0,0,0,.62-.27A1,1,0,0,0,25.93,9a1,1,0,0,0-.26-.74A.83.83,0,0,0,25.05,8a.81.81,0,0,0-.63.28,1,1,0,0,0-.26.73,1.05,1.05,0,0,0,.26.73A.83.83,0,0,0,25.05,10Z"/><path class="cls-2" d="M27.45,10.41h-.52V6.34h.52Z"/><path class="cls-2" d="M29.18,10.5a1.33,1.33,0,0,1-1-.42A1.46,1.46,0,0,1,27.76,9a1.56,1.56,0,0,1,.38-1,1.28,1.28,0,0,1,1-.44,1.29,1.29,0,0,1,1,.41A1.52,1.52,0,0,1,30.49,9v.09H28.28a1,1,0,0,0,.28.67.89.89,0,0,0,.61.24.75.75,0,0,0,.76-.47l.47.19a1.18,1.18,0,0,1-.45.54A1.27,1.27,0,0,1,29.18,10.5Zm.75-1.82a.69.69,0,0,0-.22-.45.86.86,0,0,0-1.1,0,.94.94,0,0,0-.29.49Z"/><path class="cls-2" d="M32.55,10.41H32V6.34h1.39a1.27,1.27,0,0,1,.89.34,1.19,1.19,0,0,1,0,1.74,1.27,1.27,0,0,1-.89.34h-.87Zm0-2.15h.88A.68.68,0,0,0,34,8a.7.7,0,0,0,0-1,.68.68,0,0,0-.53-.22h-.88Z"/><path class="cls-2" d="M35.56,10.41H35V6.34h.53Z"/><path class="cls-2" d="M36.9,10.5a1.11,1.11,0,0,1-.74-.25.85.85,0,0,1-.3-.68.83.83,0,0,1,.36-.71,1.36,1.36,0,0,1,.87-.26,1.41,1.41,0,0,1,.75.17V8.69a.64.64,0,0,0-.21-.5A.77.77,0,0,0,37.11,8a.81.81,0,0,0-.41.11.54.54,0,0,0-.25.29L36,8.21a1,1,0,0,1,.38-.46,1.17,1.17,0,0,1,.75-.22,1.32,1.32,0,0,1,.89.31,1.12,1.12,0,0,1,.35.89v1.68h-.5V10h0A1,1,0,0,1,36.9,10.5ZM37,10a.86.86,0,0,0,.59-.24.76.76,0,0,0,.26-.57A1,1,0,0,0,37.18,9a.87.87,0,0,0-.58.16.49.49,0,0,0-.19.39.35.35,0,0,0,.18.32A.68.68,0,0,0,37,10Z"/><path class="cls-2" d="M39.48,11.64h-.54l.65-1.41L38.44,7.62H39l.83,2h0l.81-2h.57Z"/><path class="cls-2" d="M3.45,8.31c0-1.31,0-2.61,0-3.91A.63.63,0,0,1,3.59,4s.07-.05.13,0L6.35,6.65,8.06,8.38s.06.08,0,.14L3.88,12.69c-.09.08-.15.08-.23,0a.53.53,0,0,1-.21-.45V8.31Z"/><path class="cls-2" d="M4,3.83a.49.49,0,0,1,.25.07l5.35,3c.08.05.08.07,0,.13L8.37,8.21s-.06.07-.12,0L4,3.88Z"/><path class="cls-2" d="M4.34,12.66,8.22,8.73c.08-.08.12-.07.19,0l1,1c.06.06.06.08,0,.13l-5,2.73S4.36,12.65,4.34,12.66Z"/><path class="cls-2" d="M11.73,8.34a.4.4,0,0,1-.17.33c-.08.06-.17.1-.25.15L9.8,9.65c-.07,0-.11,0-.16,0L8.56,8.53c-.05,0-.06-.08,0-.13L9.82,7.14a.11.11,0,0,1,.14,0L11.45,8A.44.44,0,0,1,11.73,8.34Z"/></g></g></svg>