<svg xmlns="http://www.w3.org/2000/svg" viewBox="0 0 45.68 15.98"><defs><style>.cls-2{fill:#fff}</style></defs><g id="Layer_2" data-name="Layer 2"><g id="Layer_1-2" data-name="Layer 1"><rect width="45.68" height="15.98" rx="2.11" style="fill:#333"/><path class="cls-2" d="M14.4 4.87h-.29a1.36 1.36 0 0 0-.11-.33h-.4a1.36 1.36 0 0 0-.09.33h-.26s.07-.21.2-.57a4 4 0 0 0 .21-.58H14s.07.22.19.57a5.91 5.91 0 0 1 .21.58Zm-.4-.5a5.2 5.2 0 0 1-.15-.49s-.05.18-.15.49ZM15.53 4.87h-.22a1.85 1.85 0 0 0-.24-.39 2.29 2.29 0 0 1-.29-.48v.88h-.21V3.73h.26a1.61 1.61 0 0 0 .22.37 2.17 2.17 0 0 1 .26.47v-.84h.22v.55c0 .22-.01.41 0 .59ZM16.81 4.25a.68.68 0 0 1-.16.44.59.59 0 0 1-.45.19h-.36V3.73h.36a.59.59 0 0 1 .46.16.55.55 0 0 1 .15.36Zm-.24 0a.43.43 0 0 0-.1-.28.38.38 0 0 0-.3-.12h-.11v.78h.12a.34.34 0 0 0 .28-.12.48.48 0 0 0 .11-.22ZM18 4.87h-.26a1.82 1.82 0 0 0-.15-.39.21.21 0 0 0-.18-.07h-.1v.46h-.24V3.72h.41c.27 0 .41.1.41.28a.32.32 0 0 1-.23.31.25.25 0 0 1 .15.14 1.81 1.81 0 0 1 .19.42Zm-.33-.81c0-.12-.07-.18-.22-.18h-.15v.36h.08c.18.01.27-.05.27-.18ZM19.25 4.27a.64.64 0 0 1-.17.45.54.54 0 0 1-.8 0 .56.56 0 0 1-.15-.41.64.64 0 0 1 .16-.45.54.54 0 0 1 .41-.18.51.51 0 0 1 .39.17.57.57 0 0 1 .16.42ZM19 4.3a.45.45 0 0 0-.09-.3.28.28 0 0 0-.23-.12.26.26 0 0 0-.22.12.46.46 0 0 0-.09.29.49.49 0 0 0 .09.3.29.29 0 0 0 .24.11.25.25 0 0 0 .21-.11.48.48 0 0 0 .09-.29ZM19.74 4.87h-.24V3.72h.24v1.15ZM21 4.25a.63.63 0 0 1-.16.44.59.59 0 0 1-.45.19h-.36V3.73h.37a.62.62 0 0 1 .46.16.59.59 0 0 1 .14.36Zm-.24 0a.39.39 0 0 0-.1-.28.35.35 0 0 0-.3-.12h-.1v.78h.12a.34.34 0 0 0 .28-.12.48.48 0 0 0 .12-.22ZM22.71 4.87h-.28a1.36 1.36 0 0 0-.08-.33H22a1.36 1.36 0 0 0-.09.33h-.31s.07-.21.2-.57a4 4 0 0 0 .2-.58h.33a4.44 4.44 0 0 0 .19.57 4.51 4.51 0 0 1 .19.58Zm-.4-.5a5.2 5.2 0 0 1-.15-.49s-.05.18-.15.49ZM23.74 4a.34.34 0 0 1-.16.31.65.65 0 0 1-.38.1h-.06v.44h-.24V3.7h.44a.55.55 0 0 1 .29.08.27.27 0 0 1 .11.22Zm-.23.05c0-.13-.08-.19-.25-.19h-.13v.38h.05c.23.03.33-.04.33-.17ZM24.8 4a.36.36 0 0 1-.16.31.65.65 0 0 1-.38.1h-.06v.44H24V3.7h.44a.51.51 0 0 1 .28.08.26.26 0 0 1 .08.22Zm-.23.05c0-.13-.08-.19-.25-.19h-.13v.38h.05c.22.03.33-.04.33-.17ZM26.52 4.27a.64.64 0 0 1-.16.45.54.54 0 0 1-.36.18.51.51 0 0 1-.39-.17.57.57 0 0 1-.16-.41.64.64 0 0 1 .17-.45.54.54 0 0 1 .8 0 .56.56 0 0 1 .1.4Zm-.24 0a.45.45 0 0 0-.09-.3.3.3 0 0 0-.19-.09.26.26 0 0 0-.21.12.46.46 0 0 0-.09.29.49.49 0 0 0 .09.3.27.27 0 0 0 .21.11.25.25 0 0 0 .22-.11.48.48 0 0 0 .06-.29ZM27.72 4.87h-.22a1.85 1.85 0 0 0-.24-.39A1.91 1.91 0 0 1 27 4a2.26 2.26 0 0 1 0 .35v.53h-.22V3.73H27a2.22 2.22 0 0 0 .22.37 2.4 2.4 0 0 1 .27.47v-.84h.22v.55c0 .22 0 .41.01.59ZM17.33 8.54a1.83 1.83 0 0 1-.51 1.36 2 2 0 0 1-1.49.6 2 2 0 0 1-1.5-.61 2.06 2.06 0 0 1-.62-1.52 2.1 2.1 0 0 1 2.12-2.12 2 2 0 0 1 .83.17 1.61 1.61 0 0 1 .64.45l-.36.36a1.38 1.38 0 0 0-1.11-.48 1.58 1.58 0 0 0-1.12.45 1.56 1.56 0 0 0-.47 1.17A1.57 1.57 0 0 0 15.33 10a1.54 1.54 0 0 0 1.13-.45 1.29 1.29 0 0 0 .35-.83h-1.48v-.49h2a1.71 1.71 0 0 1 0 .31ZM18 8a1.45 1.45 0 0 1 2 0 1.46 1.46 0 0 1 .41 1 1.47 1.47 0 0 1-.4 1.06 1.47 1.47 0 0 1-2.06 0 1.47 1.47 0 0 1-.4-1.06A1.46 1.46 0 0 1 18 8Zm.39 1.79a.89.89 0 0 0 1.28 0 1 1 0 0 0 .22-.79 1 1 0 0 0-.27-.73.87.87 0 0 0-1.28 0 1 1 0 0 0-.27.73 1 1 0 0 0 .27.75ZM21 8a1.35 1.35 0 0 1 1-.43A1.34 1.34 0 0 1 23 8a1.46 1.46 0 0 1 .46 1 1.48 1.48 0 0 1-.41 1.06 1.36 1.36 0 0 1-1 .42 1.38 1.38 0 0 1-1-.42A1.47 1.47 0 0 1 20.59 9 1.46 1.46 0 0 1 21 8Zm.39 1.79A.89.89 0 0 0 22 10a.87.87 0 0 0 .64-.27 1 1 0 0 0 .29-.73 1 1 0 0 0-.27-.73A.84.84 0 0 0 22 8a.86.86 0 0 0-.64.28 1 1 0 0 0-.27.73 1 1 0 0 0 .29.74ZM25 11.73a1.24 1.24 0 0 1-.81-.25 1.4 1.4 0 0 1-.45-.56l.48-.2a.77.77 0 0 0 .29.38.81.81 0 0 0 .49.15.89.89 0 0 0 .68-.26 1 1 0 0 0 .24-.7V10a1.11 1.11 0 0 1-.39.35 1.13 1.13 0 0 1-.56.13 1.23 1.23 0 0 1-.93-.42A1.53 1.53 0 0 1 23.63 9 1.52 1.52 0 0 1 24 8a1.2 1.2 0 0 1 1-.47 1.13 1.13 0 0 1 .56.14 1 1 0 0 1 .39.34v-.39h.5v2.65a1.38 1.38 0 0 1-.45 1.09 1.47 1.47 0 0 1-1 .37Zm0-1.71a.83.83 0 0 0 .62-.27 1 1 0 0 0 .31-.75 1 1 0 0 0-.26-.74.83.83 0 0 0-.62-.26.81.81 0 0 0-.63.28 1 1 0 0 0-.26.73 1.05 1.05 0 0 0 .26.73.83.83 0 0 0 .63.26ZM27.45 10.41h-.52V6.34h.52ZM29.18 10.5a1.33 1.33 0 0 1-1-.42A1.46 1.46 0 0 1 27.76 9a1.56 1.56 0 0 1 .38-1 1.28 1.28 0 0 1 1-.44 1.29 1.29 0 0 1 1 .41A1.52 1.52 0 0 1 30.49 9v.09h-2.21a1 1 0 0 0 .28.67.89.89 0 0 0 .61.24.75.75 0 0 0 .76-.47l.47.19a1.18 1.18 0 0 1-.45.54 1.27 1.27 0 0 1-.77.24Zm.75-1.82a.69.69 0 0 0-.22-.45.86.86 0 0 0-1.1 0 .94.94 0 0 0-.29.49ZM32.55 10.41H32V6.34h1.39a1.27 1.27 0 0 1 .89.34 1.19 1.19 0 0 1 0 1.74 1.27 1.27 0 0 1-.89.34h-.87Zm0-2.15h.88A.68.68 0 0 0 34 8a.7.7 0 0 0 0-1 .68.68 0 0 0-.53-.22h-.88ZM35.56 10.41H35V6.34h.53ZM36.9 10.5a1.11 1.11 0 0 1-.74-.25.85.85 0 0 1-.3-.68.83.83 0 0 1 .36-.71 1.36 1.36 0 0 1 .87-.26 1.41 1.41 0 0 1 .75.17v-.08a.64.64 0 0 0-.21-.5.77.77 0 0 0-.52-.19.81.81 0 0 0-.41.11.54.54 0 0 0-.25.29L36 8.21a1 1 0 0 1 .38-.46 1.17 1.17 0 0 1 .75-.22 1.32 1.32 0 0 1 .89.31 1.12 1.12 0 0 1 .35.89v1.68h-.5V10a1 1 0 0 1-.97.5Zm.1-.5a.86.86 0 0 0 .59-.24.76.76 0 0 0 .26-.57 1 1 0 0 0-.67-.19.87.87 0 0 0-.58.16.49.49 0 0 0-.19.39.35.35 0 0 0 .18.32.68.68 0 0 0 .41.13ZM39.48 11.64h-.54l.65-1.41-1.15-2.61H39l.83 2 .81-2h.57ZM3.45 8.31V4.4a.63.63 0 0 1 .14-.4s.07-.05.13 0l2.63 2.65 1.71 1.73s.06.08 0 .14l-4.18 4.17c-.09.08-.15.08-.23 0a.53.53 0 0 1-.21-.45V8.31ZM4 3.83a.49.49 0 0 1 .25.07l5.35 3c.08.05.08.07 0 .13L8.37 8.21s-.06.07-.12 0L4 3.88ZM4.34 12.66l3.88-3.93c.08-.08.12-.07.19 0l1 1c.06.06.06.08 0 .13l-5 2.73s-.05.06-.07.07ZM11.73 8.34a.4.4 0 0 1-.17.33c-.08.06-.17.1-.25.15l-1.51.83h-.16L8.56 8.53c-.05 0-.06-.08 0-.13l1.26-1.26a.11.11 0 0 1 .14 0l1.49.86a.44.44 0 0 1 .28.34Z"/></g></g></svg>